<?xml version="1.0" encoding="utf-8"?>
<!-- Generator: Adobe Illustrator 24.3.0, SVG Export Plug-In . SVG Version: 6.00 Build 0)  -->
<svg version="1.1" id="レイヤー_2" xmlns="http://www.w3.org/2000/svg" xmlns:xlink="http://www.w3.org/1999/xlink" x="0px"
	 y="0px" width="9.999px" height="31.877px" viewBox="0 0 9.999 31.877" style="enable-background:new 0 0 9.999 31.877;"
	 xml:space="preserve">
<style type="text/css">
	.st0{fill:#5AB365;}
	.st1{fill:#A3A8A8;}
</style>
<path class="st0" d="M22.563,22.563"/>
<g>
	<g>
		<path class="st1" d="M2.07,3.976c2.413,0,2.417-3.75,0-3.75C-0.343,0.226-0.347,3.976,2.07,3.976L2.07,3.976z"/>
	</g>
</g>
<g>
	<g>
		<path class="st1" d="M2.07,10.823c2.413,0,2.417-3.75,0-3.75C-0.343,7.073-0.347,10.823,2.07,10.823L2.07,10.823z"/>
	</g>
</g>
<g>
	<g>
		<path class="st1" d="M2.07,17.669c2.413,0,2.417-3.75,0-3.75C-0.343,13.919-0.347,17.669,2.07,17.669L2.07,17.669z"/>
	</g>
</g>
<g>
	<g>
		<path class="st1" d="M2.07,24.516c2.413,0,2.417-3.75,0-3.75C-0.343,20.766-0.347,24.516,2.07,24.516L2.07,24.516z"/>
	</g>
</g>
<g>
	<g>
		<path class="st1" d="M2.07,31.362c2.413,0,2.417-3.75,0-3.75C-0.343,27.612-0.347,31.362,2.07,31.362L2.07,31.362z"/>
	</g>
</g>
<g>
	<g>
		<path class="st1" d="M7.861,3.976c2.413,0,2.417-3.75,0-3.75C5.448,0.226,5.444,3.976,7.861,3.976L7.861,3.976z"/>
	</g>
</g>
<g>
	<g>
		<path class="st1" d="M7.861,10.823c2.413,0,2.417-3.75,0-3.75C5.448,7.073,5.444,10.823,7.861,10.823L7.861,10.823z"/>
	</g>
</g>
<g>
	<g>
		<path class="st1" d="M7.861,17.669c2.413,0,2.417-3.75,0-3.75C5.448,13.919,5.444,17.669,7.861,17.669L7.861,17.669z"/>
	</g>
</g>
<g>
	<g>
		<path class="st1" d="M7.861,24.516c2.413,0,2.417-3.75,0-3.75C5.448,20.766,5.444,24.516,7.861,24.516L7.861,24.516z"/>
	</g>
</g>
<g>
	<g>
		<path class="st1" d="M7.861,31.362c2.413,0,2.417-3.75,0-3.75C5.448,27.612,5.444,31.362,7.861,31.362L7.861,31.362z"/>
	</g>
</g>
</svg>
