<?xml version="1.0" encoding="utf-8"?>
<!-- Generator: Adobe Illustrator 24.3.0, SVG Export Plug-In . SVG Version: 6.00 Build 0)  -->
<svg version="1.1" id="レイヤー_2" xmlns="http://www.w3.org/2000/svg" xmlns:xlink="http://www.w3.org/1999/xlink" x="0px"
	 y="0px" width="25px" height="25px" viewBox="0 0 25 25" style="enable-background:new 0 0 25 25;" xml:space="preserve">
<style type="text/css">
	.st0{fill:none;stroke:#231815;stroke-width:2;stroke-miterlimit:10;}
	.st1{fill:#231815;}
</style>
<line class="st0" x1="12.5" y1="10.257" x2="12.5" y2="21.107"/>
<line class="st0" x1="7.85" y1="10.257" x2="8.424" y2="21.107"/>
<polygon class="st1" points="20.937,24.82 4.062,24.82 2.992,7.711 4.988,7.586 5.941,22.82 19.058,22.82 20.011,7.586 
	22.008,7.711 "/>
<polyline class="st0" points="12.5,7.649 2.164,7.649 2.164,4.206 12.437,4.206 12.563,4.206 22.836,4.206 22.836,7.649 12.5,7.649 
	"/>
<polygon class="st1" points="15.28,4.385 14.854,2.04 10.145,2.04 9.719,4.385 7.752,4.027 8.476,0.04 16.524,0.04 17.249,4.027 "/>
<line class="st0" x1="12.5" y1="10.257" x2="12.5" y2="21.107"/>
<line class="st0" x1="17.15" y1="10.257" x2="16.576" y2="21.107"/>
</svg>
